<?xml version="1.0" standalone="no"?>
<!DOCTYPE svg PUBLIC "-//W3C//DTD SVG 20010904//EN"
 "http://www.w3.org/TR/2001/REC-SVG-20010904/DTD/svg10.dtd">
<svg version="1.0" xmlns="http://www.w3.org/2000/svg"
 width="1920.000000pt" height="954.000000pt" viewBox="0 0 1920.000000 954.000000"
 preserveAspectRatio="xMidYMid meet">
<metadata>
Created by potrace 1.16, written by Peter Selinger 2001-2019
</metadata>
<g transform="translate(0.000000,954.000000) scale(0.100000,-0.100000)"
fill="#000000" stroke="none">
<path d="M9670 9185 c-8 -10 -17 -12 -24 -6 -18 15 -105 8 -116 -9 -5 -8 -10
-36 -10 -61 0 -29 -6 -51 -15 -59 -9 -8 -15 -9 -15 -2 0 6 4 13 9 17 13 7 -20
65 -37 65 -7 0 -19 -15 -27 -34 -8 -18 -21 -36 -30 -39 -8 -4 -15 -14 -15 -22
0 -9 -4 -13 -10 -10 -9 5 -15 -15 -11 -38 1 -4 -5 -23 -13 -41 -11 -27 -13
-82 -10 -268 9 -532 8 -517 37 -593 24 -67 27 -95 6 -65 -8 11 -9 8 -6 -14 3
-16 2 -37 -3 -45 -15 -32 -38 -87 -50 -118 -7 -18 -18 -33 -26 -33 -15 0 -28
35 -19 50 3 5 3 10 0 10 -13 0 -35 -71 -35 -112 0 -24 -7 -81 -15 -128 -9 -47
-27 -161 -40 -255 -14 -93 -42 -249 -61 -345 -34 -165 -36 -182 -30 -305 3
-71 11 -157 17 -190 12 -59 19 -505 9 -505 -8 0 -14 -56 -14 -127 1 -39 -4
-63 -10 -63 -7 0 -11 -20 -10 -47 0 -27 -5 -56 -12 -66 -6 -10 -9 -28 -6 -39
4 -17 2 -20 -11 -15 -18 7 -24 -8 -8 -18 13 -7 10 -44 -3 -42 -5 1 -12 -7 -14
-18 -2 -11 -9 -23 -15 -26 -6 -4 -1 -14 11 -24 19 -17 20 -51 1 -39 -5 3 -7 9
-5 13 3 4 -1 8 -9 8 -12 0 -12 -4 0 -28 11 -19 11 -29 3 -31 -8 -3 -8 -9 0
-25 9 -16 9 -22 -2 -26 -7 -3 -19 0 -25 6 -9 9 -11 8 -6 -5 4 -11 2 -18 -4
-18 -6 0 -11 -5 -11 -11 0 -5 4 -8 9 -5 4 3 16 -3 26 -14 12 -13 14 -20 5 -20
-7 0 -10 -7 -6 -16 5 -12 1 -14 -16 -8 -21 6 -22 5 -8 -11 14 -17 13 -18 -2
-12 -14 5 -18 1 -18 -18 0 -14 -6 -25 -12 -25 -8 0 -5 -7 6 -15 17 -13 18 -15
3 -15 -9 0 -17 -8 -18 -17 0 -10 -2 -28 -3 -40 -1 -12 1 -28 5 -35 5 -8 0 -21
-12 -34 -16 -18 -21 -37 -22 -95 -1 -44 -7 -80 -15 -87 -7 -8 -10 -17 -7 -22
3 -5 0 -10 -6 -12 -31 -10 -33 -480 -2 -678 8 -52 17 -111 20 -130 2 -19 19
-62 37 -95 18 -34 31 -73 30 -90 -1 -16 6 -41 14 -55 9 -14 16 -27 16 -30 -1
-3 7 -18 17 -34 17 -29 17 -30 -2 -58 l-20 -28 24 0 c13 0 27 -3 30 -7 10 -9
-13 -33 -32 -32 -10 0 -11 2 -3 6 17 7 15 23 -3 23 -9 0 -15 -9 -15 -25 0 -19
10 -31 35 -46 30 -18 33 -24 24 -40 -9 -19 -8 -74 7 -223 2 -28 7 -52 10 -55
2 -3 21 12 42 32 21 20 43 37 49 37 20 0 23 -34 9 -91 -8 -30 -14 -61 -14 -69
3 -45 -6 -65 -43 -102 -31 -31 -38 -43 -27 -49 8 -6 0 -7 -19 -3 -22 4 -33 3
-33 -5 0 -6 3 -10 8 -10 4 1 15 1 25 0 24 -2 21 -31 -4 -31 -11 0 -18 4 -15 8
2 4 -4 8 -14 8 -15 0 -16 -4 -9 -18 5 -10 14 -18 20 -18 6 0 7 -4 4 -10 -3 -5
-1 -10 6 -10 7 0 1 -12 -13 -28 -20 -21 -26 -38 -27 -75 0 -33 4 -50 14 -53 8
-4 13 -10 10 -14 -3 -4 3 -11 12 -14 14 -6 11 -10 -15 -26 -30 -19 -46 -38
-19 -25 6 4 5 1 -4 -7 -14 -12 -49 -98 -49 -121 0 -6 8 -3 18 6 10 9 34 20 52
24 l35 6 -16 -24 c-9 -13 -23 -49 -33 -79 -10 -30 -24 -62 -31 -70 -21 -26
-105 -205 -105 -226 0 -14 20 1 71 55 54 57 72 72 79 61 25 -40 -21 -119 -131
-225 -104 -101 -160 -234 -178 -425 -10 -111 -15 -123 -41 -115 -14 4 -22 -6
-40 -47 -62 -143 -110 -350 -114 -488 -2 -47 -9 -96 -15 -108 -7 -13 -13 -42
-14 -65 -1 -30 -6 -41 -16 -39 -13 3 -12 -9 3 -68 3 -8 5 -18 5 -22 1 -3 26
-22 57 -41 31 -20 49 -37 42 -40 -7 -2 -10 -7 -7 -11 6 -7 247 -36 299 -36 20
0 41 -5 48 -12 9 -9 12 -9 12 3 0 11 2 12 9 0 12 -19 72 -28 273 -42 153 -11
200 -10 340 4 90 9 258 22 373 28 143 7 231 17 275 29 41 12 55 19 38 19 -15
1 -38 -3 -52 -9 -21 -7 -26 -6 -31 10 -3 10 -19 35 -35 55 -17 21 -30 44 -30
53 0 9 -7 13 -20 9 -21 -5 -36 8 -42 38 -2 13 -14 22 -32 25 -18 3 -32 14 -37
29 -9 23 -9 23 47 16 135 -17 273 -3 304 30 l21 22 -28 11 c-15 5 -46 17 -67
25 -34 12 -41 19 -44 47 -2 18 -14 49 -28 69 -13 20 -24 41 -24 48 0 7 -13 32
-30 55 -24 32 -30 52 -31 92 0 28 -3 69 -7 91 -7 35 -11 40 -35 40 -22 0 -33
9 -57 51 -26 47 -30 63 -36 178 l-7 125 27 36 c15 19 34 35 42 35 7 0 14 4 14
9 0 5 6 8 13 8 6 -1 29 3 50 7 34 7 43 4 102 -34 36 -23 104 -85 154 -139 74
-81 99 -118 158 -231 38 -74 91 -169 116 -210 26 -40 56 -103 68 -138 20 -61
22 -63 50 -57 42 9 35 -9 -11 -30 -22 -10 -40 -22 -40 -27 0 -4 -7 -8 -17 -8
-9 0 -14 -2 -11 -5 3 -3 39 1 82 9 42 9 83 13 92 9 14 -5 54 30 54 48 0 5 18
2 39 -6 61 -21 61 -15 3 104 -20 40 -46 81 -57 90 -21 18 -27 32 -27 69 0 13
-7 26 -15 29 -8 3 -12 12 -9 19 3 8 1 24 -4 36 -5 13 -9 19 -10 13 0 -11 -56
87 -66 117 -4 10 -16 18 -29 18 -20 0 -27 10 -45 67 -12 38 -27 84 -35 103
-25 67 -28 75 -26 83 5 24 -23 83 -69 145 -40 54 -65 76 -108 98 -56 28 -106
74 -117 105 -3 9 -16 21 -29 27 -38 17 -105 83 -99 98 3 8 0 14 -6 14 -6 0
-11 9 -11 20 0 16 -7 20 -35 20 -37 0 -41 5 -25 30 5 8 5 17 1 20 -18 11 -71
113 -73 138 -1 15 -6 32 -11 39 -54 72 232 141 366 88 27 -11 20 11 -10 34
-23 16 -24 20 -10 21 13 0 17 6 13 18 -2 9 -7 26 -10 37 -3 11 -8 42 -10 69
-3 26 -11 55 -18 64 -11 13 -10 15 6 9 14 -6 17 -4 12 8 -3 8 -1 15 5 15 5 0
2 14 -7 31 -11 22 -32 38 -75 57 -32 14 -59 29 -59 34 0 10 13 10 26 1 5 -5
-3 4 -18 19 -15 15 -23 30 -19 33 5 3 15 -1 23 -8 19 -19 61 -47 71 -47 16 0
-38 61 -60 66 -13 4 -23 12 -23 19 0 9 -18 16 -47 20 -27 3 -59 8 -71 11 -15
3 -21 1 -17 -6 3 -5 16 -11 28 -11 17 -1 18 -2 4 -6 -9 -2 -15 -9 -12 -14 4
-5 2 -9 -3 -9 -6 0 -12 7 -16 15 -4 10 -14 13 -34 9 -16 -3 -32 -2 -36 4 -3 5
5 8 19 6 14 -1 25 2 25 7 0 5 -40 9 -89 9 -50 0 -93 5 -96 10 -3 6 -15 10 -27
10 -15 0 -18 4 -12 18 4 9 8 54 8 98 1 65 5 86 19 102 11 12 16 25 13 31 -4 5
-2 12 4 16 6 4 7 11 4 17 -4 6 -1 14 6 18 9 5 12 29 11 73 -1 47 2 66 12 70 8
3 50 4 93 1 92 -4 225 6 219 16 -2 4 11 5 30 3 38 -4 44 3 20 21 -13 9 -11 11
9 12 17 1 23 -2 19 -12 -3 -9 2 -14 16 -14 15 0 20 6 19 23 0 12 3 36 7 52 8
27 7 29 -9 16 -25 -21 -29 -7 -5 20 11 13 17 18 13 10 -5 -9 -3 -12 4 -7 15 9
16 36 1 36 -8 0 -8 4 -2 13 11 14 11 27 0 44 -4 6 -2 23 4 37 13 27 5 61 -11
51 -12 -7 -13 5 -1 23 4 8 12 12 17 10 5 -1 9 13 10 33 1 21 4 45 9 55 13 34
23 157 14 181 -9 24 5 34 14 11 3 -7 6 7 6 32 1 26 -4 51 -11 58 -9 9 -8 15 8
27 11 8 14 14 6 15 -9 0 -10 5 -3 19 6 10 7 21 4 25 -3 3 -2 6 4 6 5 0 10 43
12 100 1 55 -2 100 -6 100 -5 0 -18 -7 -29 -15 -22 -17 -48 -20 -39 -5 4 6 11
8 16 5 5 -4 9 1 9 9 0 9 3 15 8 14 24 -5 42 17 42 52 0 22 -4 41 -9 44 -4 3
-6 17 -3 32 3 18 0 30 -12 36 -13 7 -14 13 -6 22 7 10 6 17 -5 26 -9 7 -12 16
-7 19 5 3 7 20 5 38 -4 24 -9 30 -22 27 -13 -5 -13 -4 2 6 9 6 17 18 17 27 0
13 -3 14 -17 2 -17 -13 -17 -12 -2 6 8 11 14 26 13 33 -1 6 -2 16 -3 22 0 5
-8 7 -16 4 -19 -8 -19 5 1 27 13 14 13 24 4 58 -10 36 -14 41 -40 41 -37 0
-38 12 -5 38 34 27 33 45 -1 31 -22 -8 -25 -7 -16 3 5 7 12 33 13 57 3 36 0
45 -16 51 -17 6 -17 7 -2 13 18 7 24 37 7 37 -7 0 -8 6 -2 16 9 15 -2 62 -21
92 -5 6 -6 16 -2 21 7 13 -25 141 -35 141 -5 0 -11 -6 -14 -12 -3 -7 -3 -2 1
12 8 28 8 52 -1 124 -6 57 -12 66 -21 37 -3 -12 -13 -21 -21 -21 -12 0 -11 5
3 27 23 35 25 49 12 111 -7 33 -14 50 -21 45 -8 -4 -9 0 -5 11 4 10 1 43 -7
74 -16 65 -44 243 -49 317 -4 54 5 155 18 194 5 16 4 21 -4 17 -15 -10 -13 5
4 28 17 23 20 50 4 40 -8 -4 -7 0 1 15 10 20 8 214 -3 281 -3 14 -5 31 -6 39
0 7 -7 11 -15 8 -12 -5 -14 3 -12 39 1 25 -1 47 -6 50 -4 3 -8 16 -8 30 0 13
-4 24 -9 24 -5 0 -7 10 -4 23 5 20 4 20 -26 -7 -24 -23 -31 -26 -31 -13 0 9 7
17 15 17 26 0 36 37 30 112 -3 39 -10 80 -16 90 -7 12 -6 18 1 18 6 0 8 5 4
12 -5 7 -9 27 -10 44 0 17 -4 36 -8 43 -4 6 -9 30 -11 54 -4 56 -23 189 -37
257 l-12 55 -7 -53 c-8 -59 -27 -87 -65 -95 -30 -5 -38 5 -52 72 -7 29 -21 65
-32 81 -26 36 -30 162 -6 207 13 27 14 40 5 83 -21 100 7 246 50 257 19 5 20
12 15 91 -3 47 -6 88 -8 91 -2 3 1 17 6 31 6 14 11 42 11 63 1 25 5 37 15 37
12 0 13 11 7 56 -5 43 -13 62 -33 80 -15 13 -30 24 -34 24 -5 0 -8 4 -8 10 0
5 17 3 38 -4 l39 -14 -12 31 c-23 63 -38 87 -54 85 -10 -2 -23 12 -36 39 -12
26 -25 41 -33 38 -7 -3 -24 7 -37 21 -17 19 -29 24 -37 17 -9 -6 -20 -2 -34
13 -15 16 -18 24 -10 27 8 3 11 17 8 36 -5 34 -13 39 -32 16z m55 -315 c9 -53
32 -122 44 -130 12 -7 -21 -103 -38 -108 -11 -4 -13 4 -9 36 5 30 2 42 -9 46
-8 4 -13 15 -11 28 2 13 -5 31 -14 41 -12 11 -18 32 -18 61 0 24 -3 51 -6 60
-4 11 2 19 17 25 29 10 34 3 44 -59z m-66 -830 c8 -14 22 -35 33 -47 16 -17
20 -36 20 -111 0 -50 -2 -94 -5 -99 -8 -13 -19 -456 -21 -848 -2 -273 -5 -331
-21 -395 l-19 -75 -18 70 c-14 56 -18 112 -18 285 0 118 -7 296 -15 395 -8 99
-15 277 -15 395 -1 164 -4 209 -12 190 -11 -24 -11 -24 -19 15 -4 22 -8 75 -8
118 -1 60 2 79 14 83 8 4 15 11 15 16 0 6 15 43 33 83 l32 73 6 -62 c3 -33 11
-72 18 -86z m22 -2491 c9 -254 8 -370 -1 -484 -6 -82 -15 -154 -20 -158 -35
-37 -54 525 -26 753 8 63 18 141 21 173 4 32 9 57 11 54 2 -2 9 -154 15 -338z
m-44 -2084 c2 -43 20 -192 29 -244 4 -23 3 -46 -2 -50 -5 -3 -14 -15 -20 -26
-9 -16 -21 -20 -60 -19 -90 2 -131 25 -118 67 3 10 6 38 6 63 1 24 5 44 11 44
5 0 7 7 3 15 -3 8 2 22 11 31 10 10 16 30 15 49 -4 53 11 77 54 91 56 17 69
13 71 -21z m-299 -1629 c29 -8 55 -15 57 -15 3 -1 5 -4 6 -8 0 -5 8 -16 16
-26 9 -9 18 -42 21 -72 5 -57 14 -68 31 -37 11 19 10 21 30 -53 14 -52 -1
-111 -36 -144 -19 -18 -22 -26 -12 -32 7 -4 17 -5 21 -3 4 3 5 -2 2 -10 -3 -9
-10 -16 -15 -16 -5 0 -20 -21 -33 -47 l-25 -48 6 53 c7 59 0 65 -22 22 l-16
-31 -20 23 -19 23 -21 -25 c-20 -23 -21 -32 -15 -124 7 -104 7 -102 -47 -215
-20 -41 -12 -146 13 -181 l21 -30 -23 0 c-13 1 -70 7 -128 14 -86 10 -125 21
-215 60 -60 26 -114 51 -119 56 -11 11 15 88 69 210 39 87 135 375 135 405 0
20 122 163 165 192 46 33 108 71 115 72 3 0 29 -6 58 -13z"/>
<path d="M6121 8268 c-5 -14 -5 -28 1 -35 6 -7 5 -14 -2 -18 -5 -3 -10 -32
-10 -64 0 -31 -4 -61 -9 -66 -8 -10 -36 -120 -45 -180 -9 -64 -31 -109 -74
-152 -18 -18 -30 -33 -27 -33 3 0 -6 -12 -20 -27 -38 -41 -87 -131 -79 -144 4
-8 3 -9 -4 -5 -8 5 -12 -2 -12 -18 0 -14 5 -26 10 -26 6 0 8 -11 4 -26 -5 -19
-4 -25 5 -20 7 5 11 -1 11 -14 0 -15 11 -26 38 -38 21 -9 50 -31 63 -50 13
-18 39 -53 58 -78 21 -30 42 -77 57 -132 27 -99 29 -127 10 -162 -10 -17 -11
-31 -4 -50 5 -14 11 -34 12 -45 4 -33 17 -65 25 -65 5 0 6 -11 3 -25 -2 -14 0
-25 6 -25 6 0 11 -10 11 -22 1 -51 3 -58 11 -53 5 3 9 -3 9 -12 0 -30 8 -87
16 -104 3 -10 1 -20 -5 -24 -6 -3 -9 -3 -8 2 2 4 -1 8 -7 8 -5 0 -9 -7 -8 -15
2 -8 3 -55 3 -103 1 -53 5 -85 10 -82 6 4 10 1 10 -4 0 -6 -5 -11 -11 -11 -7
0 -9 -11 -5 -32 4 -18 7 -40 7 -50 0 -11 8 -15 25 -13 31 3 31 -3 -1 -15 -24
-9 -35 -30 -15 -30 5 0 7 -6 4 -14 -3 -8 -1 -23 4 -33 5 -10 13 -40 17 -68 6
-49 15 -73 15 -42 0 9 3 18 8 21 4 2 6 -16 5 -41 -2 -25 2 -53 7 -62 7 -11 9
3 10 51 0 37 5 78 11 92 9 18 9 36 1 67 -12 47 -3 81 30 117 24 25 46 28 72 9
16 -12 17 -17 6 -36 -10 -20 -9 -26 13 -50 14 -14 29 -39 32 -56 4 -16 20 -59
35 -95 15 -36 34 -80 40 -97 13 -34 24 -41 35 -23 3 6 11 10 16 10 6 0 7 -5 4
-11 -5 -7 5 -8 32 -4 28 5 34 4 23 -4 -8 -6 -32 -11 -52 -11 -21 0 -38 -2 -38
-5 0 -13 35 -75 42 -75 5 0 6 -4 3 -10 -3 -5 5 -20 17 -33 13 -13 22 -29 20
-35 -2 -7 7 -16 20 -21 12 -6 17 -10 11 -10 -19 -1 -17 -11 24 -120 28 -77 40
-98 52 -94 13 4 14 3 2 -5 -12 -9 -13 -17 -3 -49 16 -51 30 -71 40 -57 11 16
35 13 57 -8 14 -14 16 -19 5 -16 -8 2 -14 -3 -12 -9 1 -8 -9 -13 -25 -13 -19
0 -24 -3 -15 -9 8 -4 13 -11 13 -15 -3 -20 2 -25 29 -24 32 1 37 7 18 26 -9 9
-9 15 -1 23 8 8 13 7 18 -1 4 -7 17 10 32 42 26 53 32 110 20 188 -3 19 -6 41
-6 48 -1 6 -9 12 -18 12 -14 0 -15 2 -5 9 10 6 9 14 -5 39 -19 34 -40 41 -49
17 -10 -24 -39 3 -41 38 -2 24 0 28 7 17 6 -9 10 -10 10 -3 0 6 7 13 16 15 13
2 11 8 -11 31 -15 15 -23 27 -16 27 18 0 12 21 -8 27 -10 2 -24 16 -30 29 -11
24 -11 24 17 8 22 -13 24 -13 8 -1 -10 9 -16 23 -13 31 3 8 1 16 -4 18 -6 2
-13 22 -16 46 -3 23 -9 42 -14 42 -5 0 -5 7 -2 17 4 10 2 14 -4 10 -6 -4 -13
0 -17 8 -3 8 -1 17 5 20 5 4 6 11 3 17 -6 10 -10 29 -13 71 0 10 -5 16 -10 13
-4 -3 -6 5 -4 18 3 13 0 27 -6 30 -6 4 -11 25 -11 47 0 22 -4 38 -9 35 -5 -4
-7 4 -4 15 4 14 0 25 -12 31 -13 8 -14 12 -5 18 13 8 5 30 -11 30 -6 0 -8 -4
-5 -8 2 -4 -7 -9 -20 -10 -15 -1 -22 2 -19 8 3 6 12 10 19 10 23 0 33 21 26
53 -4 23 -11 31 -24 29 -11 -2 -15 1 -11 7 3 7 -2 11 -14 11 -12 0 -21 5 -21
11 0 6 6 9 13 6 8 -3 20 -1 28 4 11 7 10 9 -6 9 -18 1 -18 2 -4 13 12 9 14 18
8 35 -9 23 -29 22 -29 -1 0 -7 4 -6 10 3 8 13 10 12 10 -3 0 -26 -24 -16 -28
11 -3 21 -5 21 -38 7 -19 -8 -34 -10 -34 -6 0 5 11 12 25 15 14 4 23 11 20 16
-3 5 -1 11 4 14 5 3 11 -1 15 -9 6 -17 36 -21 36 -5 0 6 -5 10 -10 10 -6 0
-21 9 -33 20 l-22 21 22 5 c16 4 20 12 17 27 -5 22 -10 51 -13 74 0 6 -9 14
-19 17 -10 4 -19 14 -19 22 0 14 2 14 14 -2 17 -24 16 -12 -4 53 -15 49 -19
53 -48 53 -17 0 -35 -4 -41 -8 -5 -5 -20 -6 -34 -1 -16 4 -19 7 -7 8 20 1 23
17 5 24 -10 4 -10 6 -1 6 6 1 15 -3 18 -9 10 -16 25 -12 19 5 -4 8 -1 15 5 15
6 0 11 -6 11 -12 0 -9 4 -8 10 2 8 12 10 12 11 -5 0 -11 3 -14 6 -7 2 6 9 10
14 6 19 -11 8 46 -13 66 -19 17 -19 20 -4 20 9 0 14 5 11 10 -10 16 -52 12
-59 -6 -6 -15 -8 -15 -30 -1 -21 14 -30 14 -77 1 -52 -13 -55 -13 -71 7 -12
14 -18 38 -18 69 0 26 -11 97 -25 158 -14 64 -25 142 -25 184 0 44 -5 79 -12
86 -7 7 -12 24 -13 39 0 14 -6 28 -12 30 -10 4 -13 -11 -12 -52 1 -46 -2 -61
-20 -78 l-21 -21 0 37 c0 32 -3 37 -24 37 -30 0 -45 -19 -53 -64 -3 -20 -10
-39 -15 -43 -13 -7 -28 16 -28 45 0 13 -4 20 -10 17 -13 -8 -24 40 -15 62 5
10 7 24 6 31 -1 6 2 12 6 12 5 0 17 14 27 31 10 16 31 44 47 60 16 16 29 34
29 39 0 6 12 24 28 41 15 17 27 43 28 57 2 55 15 125 26 145 6 12 13 37 14 57
2 19 8 68 12 107 5 45 4 77 -1 82 -6 6 -2 8 12 4 24 -6 29 15 9 35 -18 18 -28
15 -37 -10z"/>
<path d="M6287 6253 c-5 -13 -8 -51 -7 -85 0 -35 -2 -93 -6 -130 -4 -49 -3
-68 5 -68 7 0 10 -4 6 -9 -3 -5 2 -17 12 -26 9 -10 17 -25 18 -34 1 -9 7 -32
13 -51 6 -19 15 -74 21 -121 14 -108 -3 -170 -53 -196 -37 -19 -49 -33 -80
-98 -31 -65 -42 -135 -25 -166 11 -22 11 -23 -4 -11 -18 15 -37 8 -37 -14 0
-8 -5 -14 -11 -14 -5 0 -7 -4 -4 -10 3 -5 0 -10 -8 -10 -8 0 -62 -51 -120
-112 -125 -133 -152 -166 -153 -190 -3 -36 -4 -39 -16 -32 -7 4 -4 -2 6 -14
19 -22 19 -22 0 -22 -10 0 -28 -12 -38 -27 -11 -14 -14 -23 -8 -19 7 4 12 2
12 -3 0 -6 -5 -11 -11 -11 -5 0 -8 -4 -4 -9 3 -5 0 -13 -7 -18 -13 -8 -18 -9
-40 -12 -8 -1 -6 -6 5 -12 17 -10 15 -29 -4 -29 -6 0 -7 4 -4 10 3 6 -1 7 -9
4 -9 -3 -16 -10 -16 -16 0 -5 4 -7 9 -3 6 3 9 -4 8 -15 -1 -13 -8 -20 -21 -20
-11 0 -16 -3 -12 -7 8 -9 14 -10 51 -12 14 0 25 -6 25 -12 0 -6 -7 -9 -15 -6
-8 4 -17 2 -20 -3 -4 -6 -14 -6 -26 1 -12 6 -23 8 -26 5 -3 -3 6 -11 21 -17
19 -9 23 -15 14 -21 -10 -6 -10 -10 2 -17 12 -8 12 -11 -4 -17 -12 -5 -23 -2
-31 9 -13 18 -45 23 -45 7 0 -5 9 -10 20 -10 11 0 20 -4 20 -10 0 -5 10 -10
23 -10 17 0 19 -2 8 -9 -10 -6 -25 -4 -42 5 -37 19 -50 18 -42 -3 4 -13 3 -15
-5 -8 -6 6 -13 21 -15 35 -2 13 -10 26 -17 28 -7 3 -10 0 -6 -7 4 -6 1 -11 -7
-11 -8 0 -17 -7 -21 -15 -3 -8 0 -15 6 -15 17 0 3 -10 -21 -15 -11 -2 -34 -12
-51 -21 -22 -14 -27 -21 -18 -31 8 -10 3 -13 -23 -14 -19 0 -28 -3 -21 -6 18
-7 15 -21 -5 -19 -12 1 -17 -6 -16 -17 0 -12 -4 -16 -12 -13 -10 3 -12 0 -8
-11 5 -13 2 -15 -11 -10 -14 5 -17 3 -12 -8 3 -8 1 -15 -3 -15 -5 0 -12 6 -14
13 -4 9 -6 9 -6 -1 -1 -7 -5 -10 -11 -7 -5 3 -10 0 -10 -8 0 -8 -11 -23 -25
-33 -14 -11 -25 -29 -25 -42 0 -13 -4 -20 -10 -17 -7 4 -7 -2 -1 -19 10 -24 9
-24 -22 -15 -41 12 -42 12 -28 -5 10 -12 8 -19 -7 -34 -13 -13 -17 -24 -11
-33 13 -21 11 -29 -7 -29 -8 0 -13 -4 -10 -9 4 -5 2 -11 -2 -13 -13 -5 -45
-100 -45 -133 0 -47 6 -79 16 -92 5 -7 6 -16 3 -21 -3 -5 1 -20 8 -34 12 -22
12 -25 -3 -21 -9 2 -25 -3 -36 -10 -16 -13 -17 -17 -6 -31 7 -9 17 -13 22 -10
5 3 17 0 26 -5 13 -7 14 -10 4 -11 -11 0 -10 -5 4 -20 18 -20 17 -20 -11 -21
-16 -1 -33 -1 -37 0 -14 3 -2 -22 13 -27 8 -3 10 0 5 8 -6 9 -3 9 13 1 11 -6
21 -19 21 -29 2 -44 6 -54 33 -68 15 -8 28 -19 28 -25 0 -6 -4 -8 -9 -4 -5 3
-3 -9 6 -25 8 -17 13 -34 9 -37 -8 -8 -38 5 -32 15 2 4 -4 9 -15 9 -29 3 -23
-15 19 -55 20 -20 29 -30 19 -23 -15 12 -17 12 -10 -5 3 -10 11 -22 17 -26 7
-5 4 -8 -7 -8 -26 0 -17 -34 10 -38 12 -2 27 -11 35 -20 12 -15 11 -16 -4 -4
-9 8 -22 11 -28 7 -16 -10 -12 -33 11 -49 12 -8 19 -22 17 -33 -2 -10 3 -23
11 -29 8 -7 16 -35 18 -70 3 -42 1 -55 -6 -44 -5 8 -13 11 -17 7 -9 -8 15 -39
26 -32 4 3 20 -20 36 -50 26 -52 28 -54 46 -38 20 18 20 18 20 -49 1 -26 4
-45 8 -43 5 3 8 21 8 41 0 49 12 57 13 8 l1 -39 13 30 c14 29 14 29 14 5 0
-14 -4 -43 -9 -65 -5 -22 -17 -80 -28 -130 -10 -49 -30 -112 -45 -140 -15 -27
-27 -59 -27 -71 0 -23 -57 -135 -102 -202 -26 -37 -56 -98 -189 -377 -10 -22
-36 -61 -57 -86 -21 -26 -46 -67 -54 -90 -33 -92 -58 -176 -58 -195 0 -10 -9
-30 -20 -44 -11 -14 -20 -34 -20 -45 0 -16 -2 -17 -10 -5 -8 13 -11 12 -24 -5
-27 -36 -20 -73 21 -108 20 -18 46 -41 57 -52 26 -25 67 -25 581 -7 729 26
867 33 924 48 30 7 96 14 146 14 54 0 85 4 76 9 -28 18 15 22 251 20 464 -2
1108 12 1228 27 172 22 172 22 168 51 -5 40 -44 61 -153 83 -216 42 -245 52
-245 86 0 7 -8 10 -20 7 -15 -4 -20 0 -20 16 0 14 -4 20 -11 15 -8 -5 -9 8 -4
43 20 147 0 248 -69 350 -69 104 -125 159 -175 174 -42 13 -44 12 -65 -14 -12
-15 -27 -27 -33 -27 -5 0 -22 -9 -36 -21 -22 -17 -32 -18 -61 -11 -26 8 -37 6
-49 -5 -21 -22 -37 -8 -37 33 0 42 -48 98 -75 88 -14 -6 -14 -9 4 -28 22 -24
28 -56 11 -56 -6 0 -22 11 -36 25 -14 14 -33 25 -43 25 -22 0 -45 -25 -37 -39
3 -5 -1 -11 -9 -14 -12 -5 -12 -10 1 -36 8 -17 19 -33 24 -36 5 -3 15 -18 23
-34 14 -28 13 -29 -9 -34 -25 -5 -57 23 -68 59 -8 25 -60 37 -127 28 -44 -5
-44 -5 -74 45 -22 36 -33 47 -42 39 -7 -5 -21 -7 -32 -3 -13 4 -29 -4 -53 -28
-18 -18 -45 -39 -60 -45 -24 -10 -28 -9 -29 6 -2 53 -17 78 -26 44 -3 -12 -12
-22 -20 -22 -9 0 -13 6 -10 15 4 8 2 17 -3 20 -6 4 -10 12 -10 18 0 7 5 4 11
-6 8 -14 14 -16 25 -6 16 13 19 49 3 49 -5 0 -7 5 -3 11 11 18 -36 96 -100
165 -47 52 -64 65 -82 61 -13 -2 -23 -1 -22 2 2 10 -21 61 -27 61 -4 0 -3 -4
0 -10 3 -6 -1 -10 -10 -10 -11 0 -15 5 -12 15 6 15 -41 60 -52 49 -3 -3 5 -14
18 -25 24 -20 21 -23 -17 -13 -14 4 -21 12 -18 20 4 10 -3 14 -19 14 -14 0
-25 5 -25 10 0 6 9 10 19 10 11 0 23 5 26 10 6 10 -13 15 -46 12 -26 -2 -31
36 -7 52 11 8 17 19 13 25 -10 17 -28 13 -21 -4 3 -9 0 -15 -9 -15 -7 0 -42
-27 -77 -60 -90 -87 -249 -190 -292 -190 -20 0 -31 19 -18 32 8 8 7 19 -2 37
-21 40 -29 88 -16 96 14 9 -6 34 -36 45 -16 7 -20 15 -17 34 3 15 1 26 -6 26
-23 0 -10 53 29 117 21 36 42 85 46 110 4 25 16 55 27 66 14 14 19 15 15 5 -9
-23 49 -8 107 28 45 28 46 30 40 69 -26 173 -23 215 23 289 l24 39 86 -7 c48
-4 130 -13 182 -21 243 -38 314 -45 322 -33 5 9 8 8 8 -4 0 -11 8 -18 20 -18
24 0 25 4 4 24 -8 9 -11 16 -5 16 6 0 15 -9 21 -19 14 -28 46 -32 399 -47 110
-5 145 -4 151 6 5 8 13 9 21 4 24 -14 51 -16 43 -2 -6 10 -5 10 7 1 8 -6 34
-12 57 -11 33 0 42 4 38 15 -4 9 -2 11 7 6 17 -11 68 -13 61 -2 -3 5 2 6 11 3
21 -8 67 4 60 16 -3 5 1 7 9 4 8 -3 25 0 37 7 l23 12 -24 9 c-15 5 -27 5 -34
-2 -12 -12 -26 -13 -26 -2 0 11 46 32 70 32 11 0 20 -6 20 -12 0 -7 14 2 30
20 27 29 29 35 18 55 -7 12 -12 25 -11 28 1 3 -14 13 -33 24 -38 20 -45 36
-12 27 16 -4 19 -2 13 9 -8 12 -6 12 8 0 9 -7 14 -18 10 -24 -3 -6 -1 -7 6 -3
6 4 8 13 5 19 -4 7 5 1 21 -13 19 -17 26 -20 22 -9 -4 13 -1 16 14 12 13 -4
19 0 19 11 0 9 -5 16 -11 16 -5 0 -7 -6 -3 -12 5 -9 2 -8 -9 1 -10 8 -16 19
-14 25 2 6 -4 22 -15 35 -23 29 -10 48 21 32 26 -14 27 -28 4 -33 -15 -3 -15
-6 5 -17 13 -7 26 -10 29 -7 8 8 -18 87 -26 81 -8 -4 -91 31 -91 39 0 2 10 2
21 -1 19 -5 20 -4 9 17 -12 22 -12 22 11 6 27 -19 51 -21 29 -3 -8 7 -16 18
-17 25 -2 6 -4 18 -5 25 -2 6 -16 18 -33 25 l-30 12 28 -4 c17 -2 26 1 24 8
-2 6 -29 11 -66 11 -48 0 -66 5 -76 18 -7 10 -25 17 -43 17 -17 0 -34 5 -38
12 -5 7 -3 8 6 3 8 -5 11 -3 8 6 -2 7 -20 15 -39 17 -40 4 -57 17 -35 25 9 4
16 1 16 -5 0 -7 5 -6 15 2 13 11 18 10 29 -5 9 -12 19 -16 31 -11 11 4 22 1
27 -6 6 -11 8 -11 8 0 0 8 8 6 22 -7 16 -15 18 -24 10 -34 -9 -10 -6 -13 11
-14 15 -2 18 0 9 6 -20 12 6 20 41 14 15 -3 27 -1 27 5 0 5 -18 12 -40 16 -27
4 -38 10 -34 20 4 10 -10 15 -56 20 l-61 7 23 19 c13 11 17 19 11 20 -7 0 -13
-4 -13 -9 0 -24 -80 -33 -97 -11 -14 18 0 30 37 29 22 0 23 -1 6 -8 -13 -5
-16 -10 -9 -14 6 -4 18 0 26 8 9 8 29 15 46 15 25 0 29 -3 24 -17 -6 -16 -4
-16 15 1 25 22 42 15 22 -9 -8 -9 -8 -15 -2 -15 15 0 27 43 13 48 -6 2 -11 9
-11 17 0 7 -7 18 -15 25 -17 14 -21 0 -4 -17 7 -7 1 -12 -21 -17 -36 -7 -50
-1 -50 20 0 8 -4 14 -10 14 -21 0 -9 18 20 30 16 7 27 17 24 22 -3 5 -15 3
-28 -6 -19 -12 -23 -12 -23 0 0 8 6 14 14 14 19 0 16 24 -6 39 -11 8 -17 20
-14 28 6 15 -13 18 -22 3 -3 -5 -14 -10 -23 -9 -12 0 -11 3 6 9 28 12 28 21
-3 54 -14 15 -25 32 -25 37 0 6 -3 8 -7 6 -5 -3 -21 1 -38 9 -22 10 -24 13 -7
10 24 -5 28 4 10 22 -9 9 -9 12 1 12 9 0 7 9 -6 30 -9 17 -21 30 -25 30 -4 0
-8 6 -8 13 -1 6 -11 25 -25 41 -19 24 -26 27 -38 18 -7 -7 -18 -8 -22 -4 -5 4
-5 2 -2 -4 8 -13 -5 -25 -48 -43 -28 -11 -27 -9 13 28 24 23 48 39 53 35 10
-6 12 7 3 30 -3 9 -10 13 -15 10 -5 -3 -6 -11 -3 -17 4 -7 4 -9 -1 -5 -4 4
-14 3 -22 -3 -20 -17 -17 10 4 33 9 10 11 18 6 18 -6 0 -13 -6 -16 -14 -3 -8
-14 -19 -25 -25 -17 -9 -19 -7 -18 26 1 40 26 60 27 21 0 -21 1 -22 8 -3 5 11
4 22 0 23 -5 2 -9 11 -9 19 0 14 -3 13 -22 -3 -13 -10 -18 -12 -12 -4 9 14 10
25 5 48 -1 4 -6 -3 -11 -15 -6 -13 -17 -21 -29 -20 -20 1 -20 2 2 25 14 15 16
21 6 17 -10 -4 -16 0 -16 9 0 8 6 12 14 9 19 -7 16 8 -7 36 -17 19 -23 21 -35
11 -19 -16 -19 -25 1 -44 14 -15 14 -16 0 -16 -9 0 -16 4 -16 9 0 4 -12 7 -26
5 l-26 -2 28 31 c16 18 32 33 35 35 4 2 5 12 2 22 -4 15 -11 18 -37 13 -17 -3
-39 -10 -48 -14 -30 -16 -42 -9 -19 10 16 14 18 21 9 25 -7 3 -3 3 10 0 12 -3
22 -1 22 5 0 6 -5 11 -12 11 -6 0 -3 8 7 20 16 18 16 20 1 26 -9 3 -27 3 -40
0 -16 -4 -26 -1 -30 9 -4 11 3 15 27 16 24 1 26 3 9 6 -14 3 -22 11 -21 21 3
32 -1 40 -23 46 -19 5 -21 8 -8 16 11 7 7 10 -20 11 -19 0 -29 3 -22 6 6 2 12
9 12 14 0 6 -5 7 -11 3 -18 -11 -71 -15 -65 -5 10 16 -44 3 -74 -19 -22 -16
-38 -20 -58 -15 -30 7 -102 81 -102 105 0 9 -7 26 -16 38 -8 12 -10 22 -5 22
6 0 10 10 10 23 -1 12 2 41 6 63 8 45 -2 58 -42 59 -18 1 -22 -6 -25 -37 -2
-21 1 -40 7 -42 10 -3 -15 -16 -62 -30 -15 -5 -23 -3 -23 5 0 8 -3 9 -14 0
-16 -13 -71 11 -89 40 -6 10 -18 19 -25 19 -29 0 -35 78 -13 157 6 24 15 42
19 42 4 -1 16 2 27 6 17 5 20 13 17 41 -3 21 0 34 7 34 7 0 9 5 6 10 -4 7 8 8
35 4 40 -7 41 -7 31 20 -6 14 -8 26 -5 26 4 0 1 6 -5 14 -8 10 -9 16 -1 21 16
10 12 43 -7 54 -17 10 -17 10 0 11 9 0 17 5 17 10 0 6 -7 10 -15 10 -8 0 -15
6 -16 13 -2 34 -11 75 -21 101 -7 16 -12 68 -12 115 1 73 -2 88 -18 99 -10 8
-18 19 -16 25 1 7 -4 37 -10 67 -6 30 -13 71 -14 90 -3 31 -4 32 -11 13z m441
-1703 c35 -80 84 -203 108 -274 44 -129 98 -242 137 -283 17 -19 18 -23 5 -23
-29 0 -152 42 -228 77 -41 19 -93 41 -114 49 -22 8 -44 18 -50 23 -11 9 -72
33 -213 86 -40 15 -73 28 -73 30 0 2 27 52 60 111 34 60 56 110 50 112 -15 5
-12 21 6 40 15 15 16 14 9 -8 -7 -22 -6 -23 8 -9 8 9 24 31 34 50 10 19 30 52
44 74 14 22 43 73 64 113 l39 72 25 -47 c13 -27 53 -113 89 -193z m-1182
-1950 c-50 -54 -83 -102 -110 -161 -30 -63 -86 -233 -86 -257 1 -10 15 28 33
83 34 103 108 256 115 237 2 -6 9 -32 15 -59 10 -41 15 -48 35 -45 18 3 22 -1
22 -25 0 -33 -25 -73 -46 -73 -20 0 -18 -18 4 -22 14 -3 13 -5 -6 -10 -12 -3
-20 -3 -17 2 3 4 -2 10 -10 14 -10 3 -15 -1 -15 -13 0 -26 42 -119 47 -103 3
6 9 12 15 12 6 0 3 -9 -8 -21 -11 -12 -14 -23 -8 -27 17 -12 152 -309 143
-315 -16 -11 -238 -42 -291 -40 l-68 1 0 -50 0 -51 83 6 c45 3 132 15 192 26
61 12 130 24 155 27 25 4 62 15 84 26 34 18 40 18 54 5 13 -14 11 -17 -24 -26
-22 -5 -70 -15 -109 -22 -38 -6 -113 -21 -165 -33 -60 -13 -128 -21 -182 -21
-66 1 -88 -2 -88 -12 0 -26 -18 -12 -24 20 -13 57 -16 216 -6 243 9 22 7 30
-10 46 -16 15 -20 29 -17 61 1 23 5 47 9 52 3 6 9 28 13 50 4 22 10 45 15 50
4 6 10 21 13 35 10 46 89 224 114 257 13 17 24 35 24 40 -2 18 45 113 56 113
7 0 25 11 40 24 25 22 29 23 34 8 5 -11 -4 -29 -25 -52z m946 -551 c29 -6 63
-17 75 -25 l22 -14 -25 -42 c-37 -65 -43 -99 -48 -269 -3 -86 -8 -164 -12
-173 -7 -18 -24 -22 -24 -5 0 5 -4 8 -10 4 -5 -3 -26 10 -47 28 -57 51 -75 58
-110 45 -23 -8 -43 -8 -84 1 -30 7 -66 15 -81 18 -15 3 -30 13 -33 24 -4 10
-12 16 -20 12 -8 -3 -13 -9 -10 -13 3 -5 1 -11 -4 -14 -10 -7 -9 20 2 30 26
26 -25 38 -54 13 -27 -23 -29 -23 -29 -4 0 8 7 15 15 15 8 0 15 7 15 15 0 8
-5 15 -11 15 -5 0 -7 5 -4 10 4 6 25 10 48 9 79 -4 106 1 124 20 20 21 78 58
106 67 10 4 16 12 14 18 -2 6 2 17 10 24 16 16 17 52 2 52 -7 0 -9 13 -5 38 5
31 3 40 -17 57 l-24 20 26 17 c30 21 113 24 193 7z"/>
<path d="M12666 5363 c-4 -4 10 -12 30 -18 21 -5 39 -16 42 -23 2 -8 -2 -10
-14 -5 -13 5 -15 3 -9 -7 6 -10 4 -12 -9 -7 -38 15 -140 -118 -175 -225 -11
-34 -24 -44 -53 -39 -4 0 -19 -4 -33 -9 -21 -8 -25 -16 -25 -52 0 -54 -28
-168 -47 -190 -8 -9 -12 -25 -9 -35 3 -10 -1 -31 -9 -47 -8 -15 -15 -37 -15
-47 0 -30 -42 -23 -75 11 -16 17 -34 30 -40 30 -10 0 -78 53 -145 113 -19 18
-56 49 -82 70 -54 43 -80 84 -72 118 3 13 8 51 11 84 5 60 5 60 -22 63 -14 1
-32 -4 -39 -11 -21 -20 -40 -61 -37 -76 1 -8 -5 -20 -14 -27 -13 -9 -23 -8
-52 6 -21 10 -44 15 -52 12 -10 -4 -12 -1 -6 8 6 10 4 12 -7 7 -9 -3 -20 -1
-26 5 -7 7 -15 1 -25 -18 -8 -16 -24 -38 -36 -48 -11 -10 -18 -23 -15 -28 3
-4 0 -7 -7 -6 -7 2 -13 -3 -14 -11 0 -7 -20 -31 -45 -53 -25 -22 -37 -38 -28
-35 10 4 20 2 23 -3 4 -6 1 -10 -5 -10 -6 0 -8 -5 -4 -12 5 -7 3 -8 -6 -3 -8
5 -18 1 -26 -10 -7 -9 -18 -15 -25 -13 -21 7 -61 -41 -53 -65 6 -18 5 -20 -8
-10 -11 10 -18 8 -32 -8 -9 -12 -15 -27 -12 -35 3 -8 1 -14 -3 -14 -21 0 -21
-36 -1 -52 18 -15 19 -18 6 -18 -14 0 -15 -4 -6 -21 11 -20 11 -20 -14 -4 -24
16 -39 44 -16 30 6 -3 10 1 10 9 0 9 -4 16 -9 16 -15 0 -22 -32 -10 -46 6 -7
8 -18 4 -24 -3 -5 -1 -10 5 -10 6 0 9 -4 5 -9 -3 -6 3 -14 12 -20 15 -8 15
-10 3 -11 -9 0 -21 5 -27 11 -7 7 -13 7 -17 1 -3 -6 3 -13 14 -17 11 -3 20
-11 20 -18 0 -8 -3 -8 -12 1 -7 7 -15 12 -20 12 -10 0 3 -33 16 -42 8 -5 8 -8
0 -8 -5 0 -19 7 -30 15 -10 8 -22 15 -26 15 -18 1 24 -206 69 -335 19 -55 48
-147 64 -205 16 -58 39 -133 50 -168 15 -46 18 -67 11 -74 -8 -8 -17 1 -30 33
-10 24 -22 51 -25 59 -18 40 8 -114 29 -178 28 -85 29 -88 9 -72 -12 10 -15 9
-15 -8 0 -28 39 -150 49 -157 15 -8 41 127 41 207 0 61 -6 88 -34 155 -39 95
-62 198 -52 237 6 23 9 26 21 16 8 -7 15 -22 16 -34 0 -13 7 -4 17 24 9 25 21
51 25 58 11 17 47 15 47 -3 0 -8 11 -17 25 -21 38 -9 33 -50 -15 -114 -22 -29
-40 -48 -40 -42 0 7 -4 12 -10 12 -14 0 -13 -50 2 -105 13 -50 22 -55 38 -25
6 11 15 20 20 20 21 0 8 -100 -34 -284 -47 -200 -81 -396 -122 -701 -2 -11 -6
-75 -10 -142 -4 -68 -11 -123 -16 -123 -4 0 -5 18 -2 40 4 25 3 40 -4 40 -27
0 -29 -114 -2 -230 11 -47 20 -95 20 -108 0 -13 10 -44 21 -69 12 -26 32 -110
45 -187 13 -78 35 -193 49 -256 28 -134 61 -324 69 -395 l6 -50 -14 35 -14 35
-1 -45 c-1 -49 15 -107 41 -156 13 -24 26 -33 55 -38 64 -10 571 -7 578 4 3 6
43 10 88 11 104 1 131 9 135 37 3 18 -1 22 -23 22 -16 0 -24 4 -20 10 5 8 -16
10 -62 9 -95 -3 -229 9 -287 27 -27 7 -59 14 -70 14 -19 0 -19 -1 -2 -13 16
-12 13 -13 -20 -10 l-39 4 35 -20 c19 -11 45 -20 57 -21 12 0 24 -4 27 -8 7
-12 -56 -1 -79 14 -11 6 -39 15 -62 19 -40 6 -83 38 -70 52 4 3 57 8 119 10
62 2 143 8 180 13 37 6 102 10 145 11 190 1 210 28 61 79 -90 31 -111 35 -163
29 -33 -3 -50 -7 -38 -8 12 0 24 -4 26 -8 3 -5 -16 -7 -41 -5 -26 2 -82 5
-124 6 -42 1 -83 7 -90 13 -7 5 -31 10 -53 12 -57 2 -67 7 -97 47 -36 48 -42
114 -28 314 14 217 38 468 50 532 13 65 12 162 0 213 -19 74 -25 129 -25 218
l0 89 40 14 c45 15 86 7 128 -26 24 -19 25 -19 42 0 10 11 22 17 26 14 5 -3
15 -2 22 3 22 13 50 14 44 1 -3 -9 6 -14 27 -15 17 -2 37 -11 46 -22 12 -16
24 -18 70 -14 30 2 60 9 67 15 7 5 17 7 23 3 6 -4 9 -1 8 6 -2 7 6 15 16 17
10 2 24 8 30 13 57 45 75 57 101 64 17 4 24 10 18 12 -15 5 -17 35 -4 49 44
46 93 218 68 243 -5 5 -7 17 -4 27 4 16 5 15 6 -3 0 -13 5 -23 11 -23 5 0 7 7
4 15 -4 8 -1 15 5 15 6 0 14 -12 18 -27 l7 -28 6 30 c6 35 33 44 60 20 55 -50
81 -208 58 -355 -21 -141 -15 -248 21 -384 18 -65 30 -120 28 -123 -3 -2 4
-36 14 -76 12 -46 15 -75 9 -81 -14 -14 -12 -27 2 -24 8 2 15 -19 20 -57 10
-73 16 -91 17 -47 1 32 3 30 36 -33 19 -37 32 -71 29 -76 -3 -5 2 -6 11 -3 9
4 14 9 12 13 -2 3 -10 21 -17 39 -8 17 -18 32 -22 32 -9 0 -42 109 -35 116 3
3 13 -18 22 -47 11 -32 20 -47 25 -39 5 8 11 3 19 -16 9 -24 10 -25 6 -4 -18
81 -26 133 -22 136 3 3 12 -2 20 -11 21 -20 33 -122 18 -147 -13 -22 -15 -48
-2 -48 5 0 14 24 20 53 18 93 18 95 20 67 1 -14 8 -38 16 -55 l15 -30 -5 30
c-3 17 -7 53 -9 82 -3 28 -10 61 -16 73 -6 12 -10 26 -8 31 2 6 15 -12 30 -40
14 -27 29 -47 33 -43 4 4 4 -4 1 -18 -6 -21 -5 -22 4 -7 8 12 8 22 1 30 -5 7
-15 33 -21 57 -6 25 -14 57 -18 72 -4 16 -3 97 1 180 6 116 14 174 33 239 14
48 29 108 34 135 9 48 9 48 7 7 -1 -23 1 -39 5 -37 14 9 8 120 -8 165 -8 24
-17 67 -20 94 -6 76 -7 79 -48 129 -21 26 -37 48 -35 50 2 1 14 6 27 12 18 7
13 9 -27 9 -66 0 -82 15 -55 52 34 47 39 60 16 39 -12 -11 -22 -14 -22 -9 0 7
-17 6 -47 -3 -53 -16 -149 -14 -146 2 1 6 -14 11 -33 12 -19 1 -40 5 -47 9 -7
4 -20 6 -30 5 -31 -6 -66 25 -78 70 -22 82 -31 97 -87 140 -31 24 -66 54 -78
68 -53 62 -216 113 -321 102 -52 -5 -54 4 -11 66 25 36 34 64 44 131 19 132
42 263 50 290 5 17 4 22 -4 17 -7 -4 -12 -3 -12 1 0 5 15 17 33 28 45 26 105
92 128 141 10 23 26 47 34 54 8 7 12 16 9 21 -3 5 -2 9 3 9 4 0 44 35 88 77
101 97 144 117 214 102 92 -19 182 -108 196 -192 9 -50 44 -122 81 -166 70
-83 230 -172 346 -191 60 -10 77 -18 113 -51 23 -21 46 -35 50 -31 5 4 5 2 2
-4 -6 -11 9 -27 84 -89 13 -11 34 -20 45 -19 16 1 20 -3 17 -17 -5 -18 20 -53
30 -43 8 9 57 -8 51 -17 -3 -6 -14 -7 -25 -4 -13 4 -19 2 -19 -8 0 -20 27 -29
34 -11 3 8 11 14 17 14 7 0 3 -10 -9 -23 -24 -25 -20 -40 6 -29 14 5 15 3 5
-9 -10 -13 -9 -20 7 -37 11 -12 20 -24 20 -27 0 -23 178 -227 191 -219 5 3 6
-2 3 -10 -7 -19 0 -20 29 -5 21 12 21 11 5 -8 -17 -19 -16 -21 17 -53 19 -19
35 -29 35 -22 0 7 5 12 11 12 7 0 9 -9 6 -21 -4 -16 5 -34 37 -68 57 -60 95
-106 132 -158 17 -24 35 -39 39 -35 5 4 5 2 2 -4 -4 -7 -1 -24 7 -39 12 -22
12 -31 1 -53 -7 -15 -43 -119 -80 -232 -36 -113 -83 -241 -104 -285 -40 -83
-44 -120 -10 -89 32 29 22 -1 -38 -113 -34 -64 -79 -129 -109 -160 -27 -29
-45 -53 -40 -54 6 0 -6 -7 -28 -15 -46 -17 -90 -65 -104 -113 -12 -40 -2 -88
39 -196 19 -52 22 -75 19 -175 -4 -168 -4 -172 13 -181 12 -7 13 -15 5 -43 -9
-29 -8 -39 10 -68 44 -71 51 -73 191 -71 134 2 211 10 211 21 0 4 -10 8 -22 9
-13 2 -47 6 -76 9 -35 4 -58 2 -67 -6 -12 -10 -16 -8 -24 11 -5 13 -18 34 -29
47 -11 13 -28 47 -37 75 -15 48 -15 55 -1 82 9 17 16 38 16 47 0 9 5 20 11 24
8 5 8 9 -1 14 -9 5 2 22 34 54 25 26 46 51 46 55 0 5 8 11 18 13 10 3 32 32
49 64 17 32 38 73 47 89 8 17 34 98 56 180 63 235 72 259 87 239 13 -18 14
-18 49 80 15 41 18 74 4 41 -8 -18 -9 -18 -9 -2 -1 10 6 20 14 23 8 4 13 10
10 14 -3 5 -1 11 5 15 5 3 10 0 10 -7 0 -7 5 -5 12 6 8 14 8 24 0 37 -9 14 -8
17 6 15 9 -2 25 7 34 20 21 25 23 39 6 28 -6 -4 -8 -3 -4 4 3 5 1 12 -6 14 -9
3 -9 6 0 12 7 4 12 2 12 -3 0 -23 20 -9 43 30 l25 41 33 -49 c52 -77 217 -234
289 -276 36 -21 108 -74 159 -117 76 -66 97 -79 119 -75 25 4 25 3 9 -9 -24
-18 -4 -31 24 -16 11 7 23 9 26 7 2 -3 -5 -8 -17 -12 -20 -6 -11 -18 86 -108
59 -56 120 -107 136 -114 15 -7 28 -16 28 -20 0 -4 30 -41 65 -82 70 -80 108
-161 99 -208 -7 -38 30 -93 81 -118 29 -14 73 -21 155 -27 68 -4 139 -15 175
-27 76 -24 235 -101 235 -112 0 -11 82 -11 198 -2 65 5 82 9 83 22 0 10 2 12
6 4 2 -7 14 -13 25 -13 17 0 19 4 13 33 -7 32 -40 77 -57 77 -5 0 -4 -9 2 -19
15 -30 12 -33 -10 -11 -21 21 -107 30 -95 10 3 -5 12 -10 20 -10 8 0 16 -4 19
-9 11 -17 -89 2 -118 22 -25 18 -29 18 -23 4 3 -9 3 -17 -1 -17 -23 0 -130 45
-149 62 -12 11 -29 18 -37 15 -23 -9 -50 17 -43 42 5 21 -17 80 -36 92 -5 4
-7 22 -3 42 5 27 2 40 -14 58 -17 19 -23 21 -27 10 -3 -8 -23 -33 -44 -55 -29
-32 -41 -38 -50 -29 -6 6 -17 9 -25 6 -10 -4 -11 2 -4 29 6 20 6 34 1 36 -6 2
-6 16 0 35 7 24 5 37 -8 56 -10 15 -17 29 -16 32 1 4 -16 23 -38 44 -29 27
-44 34 -51 27 -8 -8 -17 -8 -30 -1 -10 5 -22 7 -27 4 -5 -3 -19 7 -31 22 -12
16 -18 21 -14 13 5 -10 0 -9 -14 4 -12 11 -22 25 -22 33 0 7 -5 12 -12 10 -6
-1 -14 9 -18 23 -5 19 1 32 22 55 15 16 33 42 39 56 10 25 7 30 -33 67 -34 33
-46 38 -61 30 -23 -12 -38 -1 -17 12 11 7 8 10 -14 10 -28 0 -29 1 -11 14 16
12 17 16 6 30 -13 15 -15 15 -26 0 -8 -12 -14 -14 -19 -6 -4 7 -2 12 3 12 19
0 12 29 -13 57 -98 111 -133 151 -153 169 -13 12 -23 25 -23 30 0 5 -8 16 -18
25 -9 8 -28 28 -40 44 -15 20 -25 26 -28 18 -8 -18 -37 -16 -31 1 4 10 0 14
-13 11 -10 -2 -24 2 -30 9 -8 11 -4 13 20 10 35 -4 38 6 11 30 -12 11 -21 14
-26 7 -3 -6 -10 -11 -16 -11 -14 0 -6 24 11 32 9 4 2 7 -18 7 -24 1 -31 5 -26
14 5 8 2 8 -9 -2 -15 -12 -17 -11 -17 3 0 9 -5 16 -12 16 -9 0 -9 3 0 12 16
16 15 31 0 21 -18 -10 -58 -12 -52 -1 3 4 9 6 14 3 4 -3 13 2 20 10 10 12 9
15 -4 15 -9 0 -15 6 -13 13 1 6 -4 11 -12 9 -8 -2 -11 3 -8 11 6 15 -17 39
-47 50 -9 4 -15 11 -12 16 4 5 -2 17 -11 27 -10 10 -18 22 -18 28 -1 6 -6 10
-13 8 -7 -1 -12 5 -12 13 0 8 -5 15 -10 15 -6 0 -15 12 -20 26 -10 25 -11 26
-36 9 -14 -9 -29 -13 -32 -9 -4 4 -1 9 6 11 6 3 10 8 7 13 -3 4 4 6 15 3 11
-3 20 0 20 6 0 6 -5 11 -11 11 -5 0 -7 5 -3 11 5 8 -1 10 -20 7 -18 -4 -26 -1
-26 9 0 8 5 11 10 8 6 -3 10 0 10 8 0 8 -10 19 -22 25 -23 11 -23 11 4 11 26
1 56 38 73 92 4 13 14 29 21 37 8 7 11 18 8 24 -4 6 -2 8 3 5 13 -8 51 53 45
71 -2 7 -8 10 -13 6 -5 -3 -8 0 -7 7 2 6 -3 14 -11 17 -8 3 -11 0 -7 -7 5 -7
1 -9 -10 -4 -15 5 -15 7 0 15 11 6 26 4 45 -5 21 -11 32 -12 40 -4 17 17 13
29 -7 23 -10 -4 -27 1 -38 9 -18 14 -18 14 4 15 13 0 32 -5 42 -10 15 -8 21
-6 30 10 6 11 8 26 4 32 -5 7 -3 8 6 3 10 -6 12 -4 7 8 -3 8 0 18 8 21 12 4
31 53 36 91 0 6 5 18 10 28 7 11 6 17 -2 17 -6 0 -9 7 -5 15 5 14 -11 64 -25
75 -3 3 -16 27 -29 53 -20 39 -29 48 -45 44 -13 -2 -22 2 -22 9 0 7 4 11 9 8
19 -12 5 17 -29 59 -28 35 -40 43 -50 35 -10 -8 -13 -6 -13 7 0 9 -6 15 -12
12 -7 -2 -12 -12 -11 -22 1 -12 -2 -14 -10 -6 -7 7 -6 16 6 29 21 23 22 36 3
29 -8 -3 -13 1 -12 10 0 8 -9 19 -22 24 -17 7 -21 6 -16 -4 4 -6 -2 -3 -14 7
-16 14 -19 22 -11 32 17 21 -7 25 -26 4 -15 -17 -16 -20 -3 -20 9 0 19 -7 22
-16 3 -8 2 -12 -4 -9 -6 3 -10 0 -10 -7 0 -10 -2 -10 -9 1 -11 17 -61 23 -78
9 -19 -15 -16 -6 13 46 14 25 21 46 15 46 -6 0 -11 -7 -11 -15 0 -17 -16 -20
-25 -5 -4 6 -13 7 -24 1 -9 -6 -26 -8 -37 -7 -10 2 -25 -1 -31 -7 -9 -6 -13
-6 -13 2 0 7 -5 9 -12 5 -7 -4 -8 -3 -4 5 4 6 12 9 17 6 12 -8 11 2 -1 26 -9
15 -7 19 6 19 14 0 15 2 2 23 -12 18 -12 26 -1 47 11 22 13 23 14 5 1 -11 0
-28 -1 -38 -1 -9 2 -17 7 -16 22 4 33 -3 33 -22 0 -30 17 -14 22 20 4 27 -4
38 -76 103 -44 40 -84 72 -89 70 -5 -1 -6 1 -3 6 6 9 -54 58 -66 54 -5 -1 -8
4 -8 12 0 7 -20 30 -44 50 -45 37 -63 45 -50 24 5 -8 2 -9 -9 -5 -13 5 -17 1
-17 -18 0 -14 -4 -25 -9 -25 -13 0 -22 28 -11 35 13 8 13 62 0 70 -6 4 -10 -8
-10 -29 0 -20 -3 -36 -6 -36 -3 0 -20 11 -36 25 -16 14 -33 23 -38 20 -7 -5
-20 41 -20 73 0 12 3 13 11 5 6 -6 12 -22 12 -35 0 -17 5 -24 18 -24 11 0 19
5 19 11 0 5 4 3 10 -5 5 -8 12 -11 16 -7 8 7 -11 32 -24 32 -4 0 -20 13 -37
29 -16 16 -48 40 -69 55 -69 46 -83 55 -130 89 -67 48 -168 104 -175 97 -5 -5
12 -20 31 -27 4 -2 8 -18 10 -36 1 -18 10 -40 19 -48 16 -14 18 -14 28 3 10
17 10 16 11 -4 0 -12 -7 -29 -16 -37 -19 -19 -25 -20 -18 -3 7 19 -41 68 -60
61 -8 -3 -24 4 -35 15 -28 28 -27 36 1 17 28 -20 55 -22 40 -3 -6 6 -11 17
-11 22 -1 6 -5 11 -11 11 -5 1 -14 2 -19 3 -6 0 -9 10 -8 21 1 12 7 18 14 16
7 -3 13 -2 13 3 0 17 -14 20 -34 6 -22 -16 -37 -19 -33 -7 1 4 -2 7 -8 7 -5 0
-9 -3 -8 -7 2 -5 -1 -8 -5 -8 -12 0 -42 34 -42 48 0 7 -6 11 -12 9 -7 -1 -12
4 -11 11 2 6 -4 12 -13 12 -8 0 -13 4 -9 9 3 5 -3 11 -12 13 -16 3 -16 5 3 24
l21 21 -28 16 c-16 9 -31 12 -34 7 -3 -5 3 -13 12 -19 10 -5 14 -13 10 -17 -5
-5 -11 -4 -15 1 -4 6 -15 15 -26 20 -17 10 -20 33 -3 27 4 -1 7 3 7 9 0 6 -9
8 -21 4 -15 -5 -22 -2 -26 15 -3 13 -11 19 -19 16 -8 -3 -14 1 -14 9 0 8 -3
14 -7 13 -10 -4 -83 52 -83 62 0 5 9 6 20 3 11 -3 20 -9 20 -14 0 -5 9 -9 20
-9 11 0 20 -4 20 -10 0 -5 5 -10 10 -10 6 0 28 -12 50 -26 21 -14 44 -23 50
-19 16 10 40 -14 33 -33 -6 -15 -4 -15 9 -4 14 11 17 10 23 -8 5 -16 10 -18
20 -10 18 15 28 -3 19 -33 -6 -21 -6 -21 14 3 l22 25 -38 33 c-20 18 -49 35
-64 39 -16 3 -28 9 -28 14 0 5 -9 9 -19 9 -11 0 -23 5 -26 10 -3 6 -13 10 -22
10 -8 0 -53 18 -99 39 -53 25 -91 37 -105 34 -15 -4 -20 -3 -15 5 4 7 0 13
-11 14 -10 0 -23 2 -30 2 -6 1 -15 4 -18 8 -4 4 -14 4 -23 1 -10 -4 -13 -2 -8
5 4 7 2 12 -5 12 -7 0 -10 3 -7 6 3 3 29 -2 58 -10 44 -13 50 -13 40 -1 -12
14 -81 39 -138 49 -24 4 -31 2 -27 -7 4 -6 1 -5 -7 3 -24 28 -109 55 -94 31 9
-14 -16 -20 -38 -9 -13 7 -16 7 -12 -1 4 -6 3 -11 -3 -11 -5 0 -11 6 -14 13
-3 9 -9 9 -25 0 -16 -10 -23 -9 -31 0 -11 14 -123 22 -135 10z m-732 -997 c85
-42 122 -79 136 -135 13 -55 5 -124 -12 -100 -7 10 -8 6 -4 -13 4 -15 2 -44
-3 -65 -14 -56 -40 -121 -41 -101 0 34 -19 27 -50 -17 -17 -25 -29 -45 -27
-45 3 0 1 -16 -3 -35 -4 -20 -4 -35 1 -35 5 0 9 -5 9 -10 0 -6 -6 -9 -12 -8
-7 2 -13 -4 -13 -12 0 -8 -4 -20 -7 -26 -13 -20 -19 -76 -8 -69 11 7 6 -11
-17 -63 -8 -18 -12 -41 -8 -51 3 -12 0 -21 -10 -25 -8 -3 -15 -15 -15 -26 0
-11 -4 -28 -9 -38 -36 -65 -75 -166 -86 -220 -16 -77 -28 -93 -47 -63 -7 11
-17 21 -22 21 -5 0 -14 6 -20 13 -6 7 -10 10 -9 8 2 -2 -2 -10 -8 -18 -9 -10
-7 -13 7 -13 17 0 17 -1 -2 -16 -12 -10 -13 -14 -4 -11 11 3 15 -3 14 -27 -1
-19 -6 -31 -15 -31 -8 0 -20 -4 -26 -8 -9 -6 -13 -1 -13 13 0 12 5 18 10 15 6
-3 10 -2 10 4 0 5 -4 12 -9 15 -10 6 -6 80 5 97 3 6 12 8 20 5 18 -7 18 4 -1
31 -17 24 -18 63 -10 248 3 61 10 123 15 139 6 16 10 44 10 62 0 18 4 35 9 38
4 3 12 27 15 53 4 27 10 57 12 68 3 11 5 31 6 45 0 14 2 29 5 33 3 4 6 37 8
74 2 36 8 70 14 76 6 6 11 18 11 27 0 29 21 89 36 105 9 8 13 15 10 15 -4 0 1
16 9 36 8 20 15 45 15 57 0 17 5 19 37 14 20 -4 59 -18 87 -31z m1946 -2293
c25 -37 54 -84 66 -104 24 -42 40 -94 25 -85 -5 4 -12 2 -16 -4 -11 -18 -30
-11 -65 25 -19 19 -40 35 -46 35 -10 0 -38 59 -62 128 -13 39 -7 63 14 55 8
-3 14 0 14 6 0 28 29 5 70 -56z m-2205 -43 c4 -25 7 -76 7 -115 0 -47 2 -64 8
-50 5 12 9 -52 10 -165 1 -102 5 -207 10 -235 24 -132 24 -136 4 -128 -28 10
-34 23 -34 78 0 28 -7 64 -16 80 -9 17 -18 48 -19 70 -12 177 -19 408 -16 478
1 10 6 15 11 12 6 -3 10 1 10 10 0 10 -5 13 -12 9 -8 -5 -8 -1 1 10 18 22 26
9 36 -54z"/>
<path d="M5190 3147 c0 -8 13 -32 29 -54 67 -93 111 -219 111 -320 0 -67 -13
-103 -56 -153 -71 -82 -238 -439 -294 -630 -12 -41 -29 -92 -36 -114 -29 -77
-7 -43 46 72 89 193 194 402 248 490 28 46 54 97 57 115 4 18 22 60 41 94 29
52 34 71 34 125 -1 155 -34 264 -105 346 -35 41 -75 56 -75 29z"/>
<path d="M10888 921 c-10 -10 -18 -26 -18 -36 0 -10 -3 -15 -7 -12 -3 4 -15
-1 -25 -10 -11 -10 -32 -16 -48 -15 -22 2 -28 -1 -24 -12 9 -23 -5 -39 -21
-26 -10 8 -15 6 -20 -9 -4 -12 -12 -18 -21 -14 -7 3 -14 0 -14 -6 0 -6 -17
-11 -38 -11 -21 0 -47 -7 -59 -15 -28 -19 -155 -47 -210 -45 -32 1 -43 -3 -43
-14 0 -10 13 -16 38 -19 28 -3 23 -4 -20 -5 -31 -1 -60 -7 -64 -13 -8 -14 5
-13 251 25 276 42 413 71 435 91 l21 19 -27 21 c-21 17 -25 27 -21 52 5 33
-15 73 -36 72 -7 0 -20 -8 -29 -18z"/>
</g>
</svg>
